<svg xmlns="http://www.w3.org/2000/svg" viewBox="0 0 128 128"><path fill="#F7A80D" d="M64 25.6L20 51.2v51.2l44 25.6 44-25.6V51.2z"/><path fill="#252F3E" d="M40.8 69.5c0 2.5.3 4.5.8 5.9.6 1.4 1.3 2.9 2.3 4.5.4.6.5 1.1.5 1.6 0 .7-.4 1.4-1.3 2.1l-4.3 2.8c-.6.4-1.2.6-1.7.6-.7 0-1.4-.3-2.1-1-1-1-1.8-2.1-2.5-3.2-.7-1.2-1.4-2.5-2.1-4.1-5.3 6.3-12 9.4-20 9.4-5.7 0-10.3-1.6-13.6-4.9-3.3-3.3-5-7.6-5-13 0-5.8 2-10.5 6.1-14 4.1-3.6 9.5-5.3 16.4-5.3 2.3 0 4.6.2 7.1.5 2.5.4 5 .9 7.7 1.5V47c0-5.2-1.1-8.8-3.2-10.9-2.2-2.1-5.9-3.1-11.2-3.1-2.4 0-4.9.3-7.4.9-2.5.6-5 1.4-7.4 2.4-.7.3-1.2.5-1.5.6-.3.1-.5.1-.7.1-.6 0-.9-.4-.9-1.3v-3.3c0-.7.1-1.2.3-1.5.2-.3.6-.6 1.2-.9 2.4-1.2 5.3-2.3 8.7-3.1C21.2 25.8 24.9 25.4 28.7 25.4c7.3 0 12.7 1.7 16.1 5 3.4 3.3 5.1 8.4 5.1 15.2v20z"/></svg>
