<svg xmlns="http://www.w3.org/2000/svg" viewBox="0 0 128 128"><path fill="#EA2D2E" d="M47.617 98.12s-4.767 2.774 3.397 3.71c9.892 1.13 14.947.968 25.845-1.092 0 0 2.871 1.795 6.873 3.351-24.439 10.47-55.308-.607-36.115-5.969z"/><path fill="#0074BD" d="M44.195 84.043s-5.348 3.959 2.823 4.805c10.567 1.091 18.91 1.18 33.354-1.6 0 0 1.993 2.025 5.132 3.131-29.542 8.64-62.446.68-41.309-6.336z"/><path fill="#EA2D2E" d="M69.802 61.271c6.025 6.935-1.58 13.17-1.58 13.17s15.289-7.891 8.269-17.777c-6.559-9.215-11.587-13.792 15.635-29.58 0 .001-42.731 10.67-22.324 34.187z"/><path fill="#0074BD" d="M102.123 108.229s3.529 2.91-3.888 5.159c-14.102 4.272-58.706 5.56-71.094.171-4.451-1.938 3.899-4.625 6.526-5.192 2.739-.593 4.303-.485 4.303-.485-4.952-3.487-32.013 6.85-13.743 9.815 49.821 8.076 90.817-3.637 77.896-9.468z"/><path fill="#EA2D2E" d="M90.479 68.238s5.881 6.853-6.481 12.171c-11.717 5.043-3.441 7.923 0 11.211-8.803-7.947-15.259-14.931-10.917-21.458 6.373-9.593 16.198-14.251 17.398-1.924z"/></svg>
