<svg xmlns="http://www.w3.org/2000/svg" viewBox="0 0 128 128"><path fill="#47A248" d="M90.491 57.282c-.37-4.79-1.496-9.409-3.062-13.934-3.244-10.104-8.45-19.046-15.783-26.74-1.854-1.946-3.916-3.729-5.209-6.151-.818-1.532-1.597-3.085-2.394-4.629l-.505-1.273-.018.223c-.029.349-.064.698-.091 1.047l-.122 2.777c.018.996.02 1.992.076 2.986.131 2.32.385 4.641.829 6.929.613 3.159 1.524 6.236 2.854 9.153.897 1.966 1.91 3.867 3.072 5.686 1.889 2.955 4.027 5.717 6.345 8.334 3.274 3.694 6.906 7.024 10.57 10.32 1.75 1.575 3.548 3.098 5.157 4.815 1.208 1.29 2.31 2.672 3.184 4.188.735 1.274 1.259 2.632 1.593 4.044.279 1.179.39 2.39.43 3.6.009.273.004.546-.01.819l-.008.145c.088-.08.181-.152.259-.238.615-.677 1.148-1.417 1.617-2.2 1.586-2.651 2.463-5.569 2.81-8.655.213-1.893.244-3.799.076-5.703z"/><path fill="#47A248" d="M27.93 80.072c.089-.516.15-1.039.244-1.553.202-1.11.412-2.218.685-3.313.505-2.025 1.168-4.006 2.07-5.894 1.146-2.397 2.598-4.581 4.357-6.538 1.644-1.83 3.505-3.43 5.469-4.909 2.328-1.754 4.79-3.313 7.252-4.871 1.373-.868 2.764-1.711 4.065-2.696 1.454-1.1 2.789-2.34 3.876-3.826 1.182-1.617 2.009-3.397 2.407-5.354.249-1.226.37-2.47.36-3.724 0-.097-.005-.193-.014-.289l-.03-.073c-.093.252-.187.503-.288.751-.591 1.456-1.322 2.843-2.201 4.141-1.404 2.073-3.093 3.896-4.977 5.526-1.844 1.596-3.82 3.028-5.829 4.413-2.354 1.624-4.756 3.174-7.023 4.915-1.833 1.407-3.559 2.937-5.063 4.716-1.394 1.648-2.546 3.467-3.393 5.466-.799 1.886-1.315 3.848-1.613 5.862-.18 1.216-.27 2.443-.278 3.672-.007.975.04 1.949.156 2.918.086.718.207 1.432.374 2.136.091.38.201.754.337 1.118l.093.213c.026-.041.056-.079.079-.123.36-.69.653-1.413.871-2.161.612-2.104.84-4.269.908-6.454.005-.176.026-.352.044-.528z"/><circle cx="64" cy="64" r="62" fill="none" stroke="#47A248" stroke-width="4"/></svg>
