<svg xmlns="http://www.w3.org/2000/svg" viewBox="0 0 128 128"><circle cx="64" cy="64" r="64" fill="#333"/><path fill="#339933" d="M112.771 30.334L68.674 4.729c-2.781-1.584-6.402-1.584-9.205 0L14.901 30.334C12.031 31.985 10 35.088 10 38.407v51.142c0 3.319 2.084 6.423 4.954 8.083l11.775 6.688c5.628 2.772 7.617 2.772 10.178 2.772 8.333 0 13.093-5.039 13.093-13.828v-50.49c0-.713-.371-1.774-1.071-1.774h-5.623c-.712 0-2.306 1.061-2.306 1.774v50.49c0 3.896-3.533 7.782-9.891 4.485L19.502 91.73c-.472-.266-.484-.718-.484-1.103V38.407c0-.395.012-.857.484-1.123l44.097-25.561c.397-.231.637-.231 1.057 0l43.661 25.561c.471.266.921.728.921 1.123v51.142c0 .395-.45.837-.921 1.103l-43.661 25.555c-.396.227-.637.227-1.057 0l-11.315-6.688c-.373-.208-.792-.338-1.188-.107-3.343 1.915-3.979 2.154-7.132 3.271-0.777.275.194.776.889 1.119l14.753 8.682c1.391.779 2.983 1.221 4.602 1.221 1.618 0 3.214-.442 4.605-1.221l43.661-25.555c2.871-1.66 4.955-4.764 4.955-8.083V38.407c0-3.319-2.084-6.422-4.955-8.073z"/></svg>
