<svg xmlns="http://www.w3.org/2000/svg" viewBox="0 0 128 128"><path fill="#3776AB" d="M49.33 62h29.159C86.606 62 93 55.132 93 46.981V19.183c0-7.912-6.632-13.856-14.555-15.176-5.014-.835-10.195-1.215-15.187-1.19-4.99.023-9.612.448-13.805 1.191C37.098 6.188 35 10.758 35 19.183V30h29v4H23.776c-8.484 0-15.914 5.108-18.237 14.811-2.681 11.12-2.8 18.062 0 29.674C7.473 86.746 13.321 92 21.776 92H31V79.952c0-9.659 8.352-18.167 18.33-17.952z"/><path fill="#FFD43B" d="M91.682 28H63V24H93.4V46.981c0 8.396-6.898 15.019-15.4 15.019H49.33c-8.148 0-15.33 7.017-15.33 15.183v27.798c0 7.912 6.878 12.562 14.555 14.861 9.189 2.752 17.99 3.246 29.012 0C84.58 117.906 93 114.147 93 106.001V96H64v-4h43.776c8.484 0 11.647-5.908 14.461-14.811 2.908-9.194 2.784-18.029 0-29.674C119.575 38.393 116.26 28 107.776 28h-16.094z"/></svg>
