<svg xmlns="http://www.w3.org/2000/svg" viewBox="0 0 128 128"><path fill="#3178c6" d="M2 63.91v62.5h125v-125H2zm100.73-5.01h-17v-13h-17.02v13h-17V26.94h51.02z"/><path fill="#fff" d="M85.73 58.9v-4.96H51.73v4.96H64.7v33.09h4.02V58.9z"/><path fill="#fff" d="M95.54 86.33l5.48-3.26c1.08 1.94 2.86 3.66 5.58 3.66 2.34 0 3.84-1.16 3.84-2.78 0-1.94-1.54-2.62-4.12-3.74l-1.42-.62c-4.08-1.74-6.78-3.9-6.78-8.5 0-4.22 3.22-7.44 8.24-7.44 3.58 0 6.14 1.24 7.98 4.5l-4.38 2.82c-.96-1.74-2-2.42-3.6-2.42-1.64 0-2.68.96-2.68 2.42 0 1.7 1.04 2.38 3.44 3.42l1.42.62c4.8 2.06 7.5 4.16 7.5 8.88 0 5.1-4 7.88-9.38 7.88-5.26 0-8.66-2.5-10.32-5.78z"/></svg>
